<?xml version="1.0" standalone="no"?>
<!DOCTYPE svg PUBLIC "-//W3C//DTD SVG 20010904//EN"
 "http://www.w3.org/TR/2001/REC-SVG-20010904/DTD/svg10.dtd">
<svg version="1.0" xmlns="http://www.w3.org/2000/svg"
 width="1024.000000pt" height="1024.000000pt" viewBox="0 0 1024.000000 1024.000000"
 preserveAspectRatio="xMidYMid meet">

<g transform="translate(0.000000,1024.000000) scale(0.100000,-0.100000)"
fill="#000000" stroke="none">
<path d="M4929 8072 c-45 -49 -50 -59 -34 -59 7 0 13 5 12 11 -1 6 4 10 11 8
8 -1 16 7 19 18 3 12 11 19 18 16 7 -2 12 2 11 9 -4 26 -12 25 -37 -3z"/>
<path d="M4847 7963 c-83 -131 -140 -268 -151 -358 l-6 -50 15 58 c16 61 54
142 55 117 1 -20 30 48 30 70 0 10 7 25 15 33 11 12 12 17 2 20 -9 4 -9 6 0 6
7 1 10 8 6 18 -5 12 -3 14 7 8 8 -5 11 -4 7 3 -9 14 3 43 14 36 5 -3 9 4 9 15
0 12 7 21 15 21 9 0 12 6 8 17 -4 11 -3 14 5 9 7 -4 12 -2 12 3 0 22 -21 10
-43 -26z"/>
<path d="M5075 7926 c10 -14 19 -26 22 -26 7 0 -17 39 -28 46 -6 3 -3 -5 6
-20z"/>
<path d="M4956 7827 c3 -10 9 -15 12 -12 3 3 0 11 -7 18 -10 9 -11 8 -5 -6z"/>
<path d="M5150 7785 c0 -5 5 -17 10 -25 5 -8 10 -10 10 -5 0 6 -5 17 -10 25
-5 8 -10 11 -10 5z"/>
<path d="M4085 7747 c-4 -13 -5 -43 -2 -68 3 -41 4 -40 5 13 1 31 6 59 11 62
5 3 28 -1 51 -9 24 -8 45 -13 48 -10 3 2 -1 6 -9 9 -8 2 -29 9 -48 15 -47 15
-50 14 -56 -12z"/>
<path d="M5792 7761 c-9 -5 -3 -8 17 -7 17 1 31 4 31 9 0 10 -32 9 -48 -2z"/>
<path d="M5170 7735 c0 -5 5 -17 10 -25 5 -8 10 -10 10 -5 0 6 -5 17 -10 25
-5 8 -10 11 -10 5z"/>
<path d="M4220 7722 c8 -5 26 -13 40 -16 17 -5 20 -4 10 2 -8 5 -26 13 -40 16
-17 5 -20 4 -10 -2z"/>
<path d="M5031 7614 c0 -11 3 -14 6 -6 3 7 2 16 -1 19 -3 4 -6 -2 -5 -13z"/>
<path d="M5212 7610 c0 -14 2 -19 5 -12 2 6 2 18 0 25 -3 6 -5 1 -5 -13z"/>
<path d="M4450 7575 c13 -14 26 -25 28 -25 3 0 -5 11 -18 25 -13 14 -26 25
-28 25 -3 0 5 -11 18 -25z"/>
<path d="M4852 7555 c0 -16 2 -22 5 -12 2 9 2 23 0 30 -3 6 -5 -1 -5 -18z"/>
<path d="M5043 7535 c0 -27 2 -38 4 -22 2 15 2 37 0 50 -2 12 -4 0 -4 -28z"/>
<path d="M5222 7550 c0 -19 2 -27 5 -17 2 9 2 25 0 35 -3 9 -5 1 -5 -18z"/>
<path d="M5444 7558 l-19 -23 23 19 c21 18 27 26 19 26 -2 0 -12 -10 -23 -22z"/>
<path d="M4480 7536 c0 -2 8 -10 18 -17 15 -13 16 -12 3 4 -13 16 -21 21 -21
13z"/>
<path d="M4683 7490 c0 -25 2 -35 4 -22 2 12 2 32 0 45 -2 12 -4 2 -4 -23z"/>
<path d="M4860 7512 c0 -7 7 -26 15 -42 22 -42 65 -104 65 -94 0 5 -12 26 -26
47 -14 21 -32 52 -39 70 -8 18 -14 26 -15 19z"/>
<path d="M5387 7478 c-33 -56 -47 -111 -47 -178 0 -63 10 -107 19 -91 5 7 18
8 37 3 27 -8 31 -5 62 42 l33 51 -34 -35 c-18 -19 -31 -39 -29 -44 3 -5 0 -6
-7 -2 -6 4 -9 11 -6 16 3 5 -6 21 -19 37 l-25 28 -10 -25 c-8 -21 -10 -16 -10
33 -1 34 3 56 8 52 14 -8 26 16 22 44 -2 15 1 21 8 16 6 -3 8 -11 5 -17 -4 -5
4 -4 17 3 21 12 22 14 6 17 -11 2 -16 9 -13 18 3 9 1 12 -4 9 -14 -9 -12 1 5
35 23 45 10 36 -18 -12z"/>
<path d="M4101 7424 c0 -11 3 -14 6 -6 3 7 2 16 -1 19 -3 4 -6 -2 -5 -13z"/>
<path d="M5221 7424 c0 -11 3 -14 6 -6 3 7 2 16 -1 19 -3 4 -6 -2 -5 -13z"/>
<path d="M4396 7417 c3 -10 9 -15 12 -12 3 3 0 11 -7 18 -10 9 -11 8 -5 -6z"/>
<path d="M4691 7404 c0 -11 3 -14 6 -6 3 7 2 16 -1 19 -3 4 -6 -2 -5 -13z"/>
<path d="M4411 7374 c0 -11 3 -14 6 -6 3 7 2 16 -1 19 -3 4 -6 -2 -5 -13z"/>
<path d="M4941 7344 c0 -11 3 -14 6 -6 3 7 2 16 -1 19 -3 4 -6 -2 -5 -13z"/>
<path d="M4710 7346 c0 -11 30 -66 36 -66 2 0 -3 15 -12 33 -19 36 -24 44 -24
33z"/>
<path d="M5191 7323 c-10 -26 -10 -27 4 -9 8 11 15 23 15 28 0 15 -7 8 -19
-19z"/>
<path d="M4130 7335 c0 -5 5 -17 10 -25 5 -8 10 -10 10 -5 0 6 -5 17 -10 25
-5 8 -10 11 -10 5z"/>
<path d="M4160 7270 c6 -11 13 -20 16 -20 2 0 0 9 -6 20 -6 11 -13 20 -16 20
-2 0 0 -9 6 -20z"/>
<path d="M5032 7265 c0 -16 2 -22 5 -12 2 9 2 23 0 30 -3 6 -5 -1 -5 -18z"/>
<path d="M6128 7283 c7 -3 16 -2 19 1 4 3 -2 6 -13 5 -11 0 -14 -3 -6 -6z"/>
<path d="M6213 7283 c9 -2 14 -9 11 -15 -5 -7 -2 -8 7 -2 20 12 40 14 33 3 -3
-5 -10 -7 -15 -4 -13 9 -11 -9 3 -23 10 -10 10 -15 -2 -22 -11 -7 -12 -10 -2
-10 8 0 16 9 19 19 3 12 11 17 19 14 11 -4 11 -7 -1 -20 -9 -8 -13 -19 -10
-24 8 -12 25 -11 25 2 0 5 -5 7 -12 3 -7 -5 -8 -3 -3 6 6 10 11 9 22 -5 7 -11
13 -14 13 -8 0 5 13 10 30 9 17 -1 30 -7 30 -13 0 -7 9 -13 21 -13 14 0 19 5
16 14 -3 8 -1 17 6 20 7 4 2 4 -10 2 -13 -2 -26 1 -30 6 -4 7 -1 8 7 3 10 -6
12 -3 8 12 -4 16 -2 19 14 15 15 -4 17 -7 6 -14 -9 -7 -7 -8 8 -3 12 3 28 3
37 -1 14 -5 14 -9 -1 -40 -14 -30 -17 -33 -24 -17 -6 14 -7 13 -5 -7 1 -15 -3
-24 -10 -23 -8 2 -10 -4 -6 -15 3 -9 2 -13 -2 -9 -5 4 -15 -3 -23 -15 -9 -16
-12 -17 -8 -4 5 15 2 17 -14 13 -15 -4 -20 0 -20 13 0 10 7 20 15 24 17 6 9
36 -10 36 -7 0 -21 -11 -31 -25 -10 -14 -21 -20 -25 -14 -3 6 -11 3 -20 -7
-12 -15 -12 -17 0 -9 10 5 12 4 7 -4 -4 -6 -12 -8 -18 -5 -14 9 -118 -95 -111
-112 3 -9 -2 -14 -12 -14 -9 0 -13 4 -10 10 3 6 -1 7 -9 4 -14 -5 -14 -8 0
-22 15 -14 15 -17 -2 -29 -16 -12 -16 -13 -1 -13 9 0 17 -5 17 -11 0 -6 -6 -7
-12 -2 -7 4 -5 -5 5 -21 18 -27 18 -27 -2 -17 -25 14 -31 14 -31 1 0 -5 3 -9
8 -9 28 5 20 -5 -13 -17 l-40 -14 40 6 c62 9 181 76 169 96 -3 5 -2 7 3 6 27
-8 160 137 204 223 l20 40 -36 14 c-50 22 -169 45 -218 44 -23 -1 -34 -3 -24
-6z m142 -42 c-3 -6 -11 -11 -16 -11 -5 0 -4 6 3 14 14 16 24 13 13 -3z m-95
-124 c0 -2 -12 -14 -27 -28 l-28 -24 24 28 c23 25 31 32 31 24z m-60 -60 c0
-2 -10 -12 -22 -23 l-23 -19 19 23 c18 21 26 27 26 19z"/>
<path d="M3875 7270 c27 -12 43 -12 25 0 -8 5 -22 9 -30 9 -10 0 -8 -3 5 -9z"/>
<path d="M6058 7273 c7 -3 16 -2 19 1 4 3 -2 6 -13 5 -11 0 -14 -3 -6 -6z"/>
<path d="M3505 7254 c-22 -8 -46 -16 -53 -19 -10 -4 -10 -11 3 -34 8 -16 21
-33 27 -37 10 -6 11 -4 1 7 -7 7 -13 22 -12 34 0 11 3 14 6 8 6 -15 53 -18 53
-3 0 6 3 9 8 9 4 -1 18 0 32 1 24 2 24 2 -5 11 -16 5 -36 7 -42 4 -7 -2 -13 0
-13 5 0 6 6 10 14 10 8 0 18 5 21 10 3 6 5 10 3 9 -2 0 -21 -7 -43 -15z"/>
<path d="M4780 7236 c19 -21 58 -56 85 -79 58 -47 38 -25 -55 59 -36 32 -49
41 -30 20z"/>
<path d="M4946 7248 c-11 -34 -15 -78 -7 -74 5 3 11 24 13 46 4 40 1 51 -6 28z"/>
<path d="M5135 7240 c-10 -11 -24 -20 -32 -20 -7 0 -13 -3 -13 -8 0 -4 -13
-13 -28 -20 -16 -7 -29 -19 -29 -27 0 -11 6 -10 26 5 37 26 107 89 100 90 -3
0 -14 -9 -24 -20z"/>
<path d="M5485 7179 c-15 -33 -25 -63 -22 -65 7 -7 87 8 87 16 0 5 8 6 19 3
10 -2 38 5 62 16 36 17 39 20 17 19 -15 -1 -24 -6 -22 -10 3 -4 0 -8 -5 -8 -6
0 -11 6 -11 13 0 8 -15 12 -43 12 -33 0 -44 -4 -43 -15 1 -8 6 -18 11 -22 6
-5 5 -8 -3 -8 -7 0 -17 10 -22 23 -7 17 -9 18 -9 5 -1 -10 -6 -18 -11 -18 -6
0 -3 16 6 38 26 60 26 62 21 62 -2 0 -17 -27 -32 -61z"/>
<path d="M5935 7230 c-3 -6 1 -7 9 -4 18 7 21 14 7 14 -6 0 -13 -4 -16 -10z"/>
<path d="M5021 7214 c0 -11 3 -14 6 -6 3 7 2 16 -1 19 -3 4 -6 -2 -5 -13z"/>
<path d="M5699 7193 c-13 -16 -12 -17 4 -4 9 7 17 15 17 17 0 8 -8 3 -21 -13z"/>
<path d="M5864 7168 l-19 -23 23 19 c21 18 27 26 19 26 -2 0 -12 -10 -23 -22z"/>
<path d="M5008 7157 c-3 -19 -2 -25 4 -19 6 6 8 18 6 28 -3 14 -5 12 -10 -9z"/>
<path d="M6243 7173 c9 -2 23 -2 30 0 6 3 -1 5 -18 5 -16 0 -22 -2 -12 -5z"/>
<path d="M6133 7163 c15 -2 37 -2 50 0 12 2 0 4 -28 4 -27 0 -38 -2 -22 -4z"/>
<path d="M3685 7104 c22 -21 42 -38 44 -36 7 3 -42 53 -64 65 -11 5 -2 -7 20
-29z"/>
<path d="M5826 7113 c-18 -37 -41 -141 -32 -150 4 -4 23 9 42 28 28 28 36 45
38 78 2 23 -1 44 -6 47 -4 3 -6 10 -3 15 4 5 -1 9 -9 9 -9 0 -22 -12 -30 -27z"/>
<path d="M3538 7085 c11 -16 37 -46 58 -65 31 -28 29 -24 -10 20 -66 74 -73
80 -48 45z"/>
<path d="M3840 7060 c0 -6 7 -10 15 -10 8 0 15 2 15 4 0 2 -7 6 -15 10 -8 3
-15 1 -15 -4z"/>
<path d="M7494 6945 c0 -60 1 -84 3 -52 2 32 2 81 0 110 -2 29 -3 3 -3 -58z"/>
<path d="M2143 6980 c0 -30 2 -43 4 -27 2 15 2 39 0 55 -2 15 -4 2 -4 -28z"/>
<path d="M4630 7004 c-176 -31 -353 -81 -343 -97 3 -6 1 -7 -5 -3 -13 8 -144
-43 -137 -54 2 -4 -7 -7 -21 -7 -31 0 -51 -17 -33 -28 8 -6 10 -4 4 5 -6 10
-4 12 8 7 8 -3 51 9 95 28 114 48 253 91 362 111 52 10 96 21 98 24 1 3 21 4
45 2 23 -3 39 -1 35 3 -9 9 -74 14 -108 9z"/>
<path d="M5177 7003 c-4 -6 15 -13 46 -17 28 -3 101 -17 160 -31 79 -17 114
-21 130 -14 19 8 19 9 -6 4 -16 -3 -26 -2 -23 3 6 10 -156 48 -245 58 -34 4
-59 2 -62 -3z"/>
<path d="M3900 6990 c-10 -6 -2 -7 25 -3 49 7 58 13 19 13 -16 0 -36 -5 -44
-10z"/>
<path d="M3981 6977 c-5 -5 -25 -10 -43 -9 -19 0 -27 -2 -20 -7 7 -4 12 -12
11 -17 -4 -23 2 -36 16 -30 8 3 15 1 15 -4 0 -6 5 -10 11 -10 6 0 9 7 5 15 -4
10 1 15 14 15 11 0 20 5 20 11 0 6 -6 9 -14 6 -10 -4 -12 0 -9 14 4 14 9 16
23 9 23 -12 33 -13 26 -1 -9 14 -43 20 -55 8z"/>
<path d="M4120 6976 c0 -8 4 -17 9 -20 5 -4 7 3 4 14 -6 23 -13 26 -13 6z"/>
<path d="M3897 6929 c-3 -12 -10 -18 -16 -14 -18 11 -12 -7 7 -21 27 -21 33
-17 30 21 -2 39 -13 46 -21 14z"/>
<path d="M4066 6925 c14 -14 28 -25 31 -25 4 0 -4 11 -17 25 -13 14 -27 25
-31 25 -5 0 3 -11 17 -25z"/>
<path d="M3788 6873 c7 -3 16 -2 19 1 4 3 -2 6 -13 5 -11 0 -14 -3 -6 -6z"/>
<path d="M3958 6863 c7 -3 16 -2 19 1 4 3 -2 6 -13 5 -11 0 -14 -3 -6 -6z"/>
<path d="M3883 6853 c9 -2 25 -2 35 0 9 3 1 5 -18 5 -19 0 -27 -2 -17 -5z"/>
<path d="M2279 6834 c-11 -14 -11 -16 0 -10 8 5 17 3 22 -5 5 -8 9 -9 9 -4 0
6 -4 16 -9 23 -6 10 -11 9 -22 -4z"/>
<path d="M5794 6816 c11 -9 24 -16 30 -16 12 0 7 5 -24 19 -24 11 -24 11 -6
-3z"/>
<path d="M2357 6755 c18 -43 29 -61 35 -53 6 10 8 10 8 -1 0 -8 3 -12 6 -8 7
7 -43 102 -62 118 -7 6 -1 -19 13 -56z"/>
<path d="M4064 6811 c7 -10 -22 -24 -34 -16 -5 3 -14 -4 -20 -15 -7 -12 -18
-19 -25 -16 -14 5 -31 -11 -22 -20 8 -9 117 57 111 67 -3 5 -7 9 -10 9 -3 0
-3 -4 0 -9z"/>
<path d="M5886 6781 c-3 -5 6 -13 20 -20 30 -13 44 -14 44 -2 0 12 -58 32 -64
22z"/>
<path d="M2320 6775 c0 -5 5 -17 10 -25 5 -8 10 -10 10 -5 0 6 -5 17 -10 25
-5 8 -10 11 -10 5z"/>
<path d="M7711 6740 c14 -31 19 -36 19 -24 0 6 -7 19 -16 30 -14 18 -14 18 -3
-6z"/>
<path d="M7680 6745 c0 -5 5 -17 10 -25 5 -8 10 -10 10 -5 0 6 -5 17 -10 25
-5 8 -10 11 -10 5z"/>
<path d="M2340 6725 c0 -5 5 -17 10 -25 5 -8 10 -10 10 -5 0 6 -5 17 -10 25
-5 8 -10 11 -10 5z"/>
<path d="M7516 6645 c-3 -9 -6 -22 -5 -28 0 -7 5 -1 10 12 5 13 8 26 5 28 -2
2 -6 -3 -10 -12z"/>
<path d="M1812 6600 c0 -19 2 -27 5 -17 2 9 2 25 0 35 -3 9 -5 1 -5 -18z"/>
<path d="M4690 6610 c-153 -14 -380 -64 -573 -127 -115 -36 -140 -51 -47 -27
82 21 215 18 318 -8 98 -24 297 -121 432 -209 120 -78 298 -224 413 -337 97
-95 97 -96 83 -54 -30 85 -117 239 -180 319 -76 96 -187 191 -271 232 -76 37
-221 87 -305 105 -63 14 -60 14 145 15 234 1 296 -8 417 -58 231 -97 496 -361
649 -649 l31 -57 -6 76 c-14 184 -143 425 -288 537 -68 52 -196 116 -271 135
-33 9 -62 19 -65 22 -22 22 326 -68 405 -104 159 -75 334 -224 428 -366 56
-83 125 -219 125 -244 0 -8 2 -12 5 -9 3 2 -4 54 -15 114 -27 153 -83 264
-185 368 -41 42 -69 74 -62 70 42 -25 119 -84 162 -125 28 -27 78 -69 112 -93
208 -151 279 -377 168 -541 -33 -48 -17 -44 44 11 67 60 95 113 95 182 0 72
14 34 15 -41 1 -89 -37 -160 -112 -207 l-28 -17 29 1 c22 1 28 5 24 16 -5 13
-3 13 11 2 14 -12 20 -10 43 15 41 44 57 83 62 153 8 115 -52 242 -170 361
-77 78 -151 131 -298 219 -436 258 -870 362 -1340 320z"/>
<path d="M7168 6550 c2 -16 8 -30 13 -30 10 0 11 7 3 38 -9 33 -21 27 -16 -8z"/>
<path d="M2142 6500 c0 -14 2 -19 5 -12 2 6 2 18 0 25 -3 6 -5 1 -5 -13z"/>
<path d="M7491 6484 c0 -11 3 -14 6 -6 3 7 2 16 -1 19 -3 4 -6 -2 -5 -13z"/>
<path d="M4940 6429 c19 -12 52 -35 72 -51 25 -19 53 -31 82 -34 24 -2 60 -11
79 -19 71 -29 61 -13 -13 21 -52 24 -71 37 -61 43 10 6 3 12 -23 21 -19 6 -41
8 -47 4 -7 -4 -9 -3 -5 4 4 6 -13 14 -44 21 -73 16 -80 14 -40 -10z"/>
<path d="M4205 6371 c-16 -5 -24 -9 -18 -10 7 0 42 -15 77 -31 l64 -31 94 19
93 19 -55 18 c-61 19 -208 28 -255 16z"/>
<path d="M7540 6356 c0 -2 8 -10 18 -17 15 -13 16 -12 3 4 -13 16 -21 21 -21
13z"/>
<path d="M2369 6313 l-24 -28 28 24 c25 23 32 31 24 31 -2 0 -14 -12 -28 -27z"/>
<path d="M3875 6330 c-28 -4 -77 -15 -110 -25 l-60 -18 44 -8 c114 -21 291
-96 476 -202 168 -96 224 -133 354 -237 112 -89 112 -88 40 50 -106 204 -317
377 -525 430 -79 21 -132 23 -219 10z"/>
<path d="M4455 6310 c-3 -5 -3 -10 2 -11 18 -1 -34 -18 -60 -18 -16 -1 -26 -5
-23 -9 7 -12 154 18 159 32 6 15 -69 21 -78 6z"/>
<path d="M5270 6306 c0 -2 8 -10 18 -17 15 -13 16 -12 3 4 -13 16 -21 21 -21
13z"/>
<path d="M2615 6291 c-3 -5 -1 -12 5 -16 5 -3 10 1 10 9 0 18 -6 21 -15 7z"/>
<path d="M5669 6281 c12 -21 69 -57 78 -48 4 5 -44 44 -75 62 -11 6 -12 3 -3
-14z"/>
<path d="M7605 6280 c10 -11 20 -20 23 -20 3 0 -3 9 -13 20 -10 11 -20 20 -23
20 -3 0 3 -9 13 -20z"/>
<path d="M7925 6268 c-75 -53 -136 -131 -135 -170 1 -7 7 1 15 17 7 17 14 23
14 15 1 -13 2 -13 11 0 5 8 7 22 5 31 -7 20 59 84 76 74 8 -6 10 -4 4 5 -6 10
-4 12 11 6 10 -4 15 -4 11 0 -4 4 0 16 10 26 21 23 15 22 -22 -4z"/>
<path d="M2576 6265 c-11 -8 -15 -15 -9 -15 6 0 16 7 23 15 16 19 11 19 -14 0z"/>
<path d="M7232 6255 c0 -16 2 -22 5 -12 2 9 2 23 0 30 -3 6 -5 -1 -5 -18z"/>
<path d="M8073 6240 c0 -25 2 -35 4 -22 2 12 2 32 0 45 -2 12 -4 2 -4 -23z"/>
<path d="M7910 6212 c0 -5 7 -9 15 -9 8 0 12 4 9 9 -3 4 -9 8 -15 8 -5 0 -9
-4 -9 -8z"/>
<path d="M7955 6211 c3 -5 1 -12 -5 -16 -6 -4 -8 -9 -6 -13 2 -4 -7 -8 -21 -8
-13 -1 -31 -10 -39 -20 -9 -11 -12 -12 -8 -4 7 13 6 13 -9 1 -10 -8 -15 -16
-12 -19 3 -3 0 -11 -7 -19 -6 -7 -9 -15 -7 -16 2 -1 14 -11 27 -22 13 -11 22
-14 20 -8 -2 6 6 18 17 26 16 13 17 17 6 31 -17 21 -7 21 13 0 13 -12 16 -12
16 -2 0 8 -5 19 -10 24 -7 7 -6 11 5 12 8 1 22 3 30 4 11 1 12 5 4 14 -8 9 -5
11 10 7 13 -3 21 -1 21 6 0 7 -4 9 -10 6 -5 -3 -10 -2 -10 3 0 6 -7 13 -16 16
-8 3 -12 2 -9 -3z"/>
<path d="M3670 6154 c-168 -123 -252 -258 -253 -404 0 -73 22 -134 67 -187 29
-34 50 -41 62 -22 4 7 -7 22 -25 36 -48 38 -73 97 -77 178 l-4 70 15 -49 c21
-74 62 -125 130 -163 74 -41 104 -49 246 -68 127 -17 245 -20 253 -6 3 5 -22
12 -57 16 -242 27 -428 114 -458 214 -14 48 1 127 36 187 37 63 121 133 208
174 l78 37 -59 17 c-83 23 -93 21 -162 -30z"/>
<path d="M8061 6174 c0 -11 3 -14 6 -6 3 7 2 16 -1 19 -3 4 -6 -2 -5 -13z"/>
<path d="M2171 6154 c0 -11 3 -14 6 -6 3 7 2 16 -1 19 -3 4 -6 -2 -5 -13z"/>
<path d="M7501 6124 c0 -11 3 -14 6 -6 3 7 2 16 -1 19 -3 4 -6 -2 -5 -13z"/>
<path d="M7970 6120 c0 -5 5 -10 11 -10 5 0 7 5 4 10 -3 6 -8 10 -11 10 -2 0
-4 -4 -4 -10z"/>
<path d="M1918 6105 c6 -11 27 -36 48 -55 36 -33 36 -33 -6 15 -24 28 -46 52
-48 55 -3 3 0 -4 6 -15z"/>
<path d="M7940 6091 c0 -6 4 -13 10 -16 6 -3 7 1 4 9 -7 18 -14 21 -14 7z"/>
<path d="M7305 6060 c10 -11 20 -20 23 -20 3 0 -3 9 -13 20 -10 11 -20 20 -23
20 -3 0 3 -9 13 -20z"/>
<path d="M7840 6073 c0 -14 19 -38 25 -32 8 8 -5 39 -16 39 -5 0 -9 -3 -9 -7z"/>
<path d="M7571 6044 c0 -11 3 -14 6 -6 3 7 2 16 -1 19 -3 4 -6 -2 -5 -13z"/>
<path d="M7954 6034 c-18 -14 -18 -15 4 -4 12 6 22 13 22 15 0 8 -5 6 -26 -11z"/>
<path d="M7732 6020 c0 -14 2 -19 5 -12 2 6 2 18 0 25 -3 6 -5 1 -5 -13z"/>
<path d="M7865 5990 c-3 -6 1 -7 9 -4 18 7 21 14 7 14 -6 0 -13 -4 -16 -10z"/>
<path d="M7083 5920 c4 -14 16 -74 28 -135 23 -121 32 -147 42 -121 5 11 3 15
-5 10 -8 -5 -9 1 -4 20 5 20 4 26 -5 20 -8 -5 -10 -2 -6 8 5 16 -38 207 -50
217 -3 3 -3 -5 0 -19z"/>
<path d="M8081 5864 c0 -11 3 -14 6 -6 3 7 2 16 -1 19 -3 4 -6 -2 -5 -13z"/>
<path d="M7949 5833 c-13 -16 -12 -17 4 -4 9 7 17 15 17 17 0 8 -8 3 -21 -13z"/>
<path d="M2103 5815 c0 -8 4 -12 9 -9 5 3 6 10 3 15 -9 13 -12 11 -12 -6z"/>
<path d="M2292 5790 c0 -14 2 -19 5 -12 2 6 2 18 0 25 -3 6 -5 1 -5 -13z"/>
<path d="M7859 5773 l-24 -28 28 24 c25 23 32 31 24 31 -2 0 -14 -12 -28 -27z"/>
<path d="M7430 5786 c0 -2 8 -10 18 -17 15 -13 16 -12 3 4 -13 16 -21 21 -21
13z"/>
<path d="M2711 5754 c0 -11 3 -14 6 -6 3 7 2 16 -1 19 -3 4 -6 -2 -5 -13z"/>
<path d="M2121 5720 c14 -31 19 -36 19 -24 0 6 -7 19 -16 30 -14 18 -14 18 -3
-6z"/>
<path d="M2163 5645 c-7 -38 -11 -71 -9 -72 1 -2 9 5 17 14 10 13 13 34 9 73
l-5 55 -12 -70z"/>
<path d="M8024 5658 l-19 -23 23 19 c21 18 27 26 19 26 -2 0 -12 -10 -23 -22z"/>
<path d="M2644 5628 l-19 -23 23 19 c21 18 27 26 19 26 -2 0 -12 -10 -23 -22z"/>
<path d="M1970 5606 c0 -7 71 -49 75 -44 2 2 -14 14 -36 26 -21 12 -39 21 -39
18z"/>
<path d="M2599 5593 c-13 -16 -12 -17 4 -4 9 7 17 15 17 17 0 8 -8 3 -21 -13z"/>
<path d="M7440 5540 c19 -11 42 -19 50 -19 8 0 -5 8 -29 19 -55 25 -67 25 -21
0z"/>
<path d="M1890 5526 c0 -2 8 -10 18 -17 15 -13 16 -12 3 4 -13 16 -21 21 -21
13z"/>
<path d="M6290 5510 c-8 -5 -10 -10 -5 -10 6 0 17 5 25 10 8 5 11 10 5 10 -5
0 -17 -5 -25 -10z"/>
<path d="M6238 5493 c7 -3 16 -2 19 1 4 3 -2 6 -13 5 -11 0 -14 -3 -6 -6z"/>
<path d="M3738 5483 c7 -3 16 -2 19 1 4 3 -2 6 -13 5 -11 0 -14 -3 -6 -6z"/>
<path d="M6128 5483 c7 -3 16 -2 19 1 4 3 -2 6 -13 5 -11 0 -14 -3 -6 -6z"/>
<path d="M3465 5396 c-23 -79 -7 -154 42 -205 20 -20 28 -26 19 -14 -12 14
-14 23 -6 28 6 3 9 14 8 23 -2 11 3 16 15 16 21 -2 23 12 1 20 -8 3 -12 11 -9
16 4 6 -7 25 -25 41 -36 35 -43 59 -29 96 5 14 7 28 5 30 -3 3 -12 -20 -21
-51z m15 -69 c0 -5 -4 -5 -10 -2 -5 3 -10 14 -10 23 0 15 2 15 10 2 5 -8 10
-19 10 -23z"/>
<path d="M7211 5414 c0 -11 3 -14 6 -6 3 7 2 16 -1 19 -3 4 -6 -2 -5 -13z"/>
<path d="M1997 5409 c7 -7 15 -10 18 -7 3 3 -2 9 -12 12 -14 6 -15 5 -6 -5z"/>
<path d="M2040 5406 c0 -2 7 -7 16 -10 8 -3 12 -2 9 4 -6 10 -25 14 -25 6z"/>
<path d="M7930 5385 c-14 -8 -20 -14 -14 -15 5 0 19 7 30 15 24 18 16 19 -16
0z"/>
<path d="M2037 5379 c12 -15 73 -53 73 -46 0 2 -19 17 -42 32 -24 16 -38 22
-31 14z"/>
<path d="M7100 5382 c0 -19 48 -109 62 -118 10 -6 10 -5 1 7 -7 8 -23 39 -37
69 -14 30 -26 49 -26 42z"/>
<path d="M6463 5315 c0 -33 2 -45 4 -27 2 18 2 45 0 60 -2 15 -4 0 -4 -33z"/>
<path d="M7221 5354 c0 -11 3 -14 6 -6 3 7 2 16 -1 19 -3 4 -6 -2 -5 -13z"/>
<path d="M2120 5315 c0 -5 10 -21 21 -35 13 -17 17 -18 10 -5 -17 33 -31 51
-31 40z"/>
<path d="M1915 5246 c10 -14 19 -26 22 -26 7 0 -17 39 -28 46 -6 3 -3 -5 6
-20z"/>
<path d="M3351 5214 c-28 -36 -27 -92 2 -135 15 -23 48 -47 97 -72 171 -85
472 -133 985 -156 183 -8 1054 -6 1200 4 223 14 411 37 575 70 297 60 423 163
349 284 l-21 35 -15 -34 c-7 -19 -22 -43 -31 -53 -43 -49 -148 -94 -272 -117
-90 -17 -395 -49 -597 -62 -252 -16 -1086 -16 -1323 0 -633 44 -855 100 -901
227 -16 42 -21 43 -48 9z"/>
<path d="M6419 5193 c-13 -16 -12 -17 4 -4 16 13 21 21 13 21 -2 0 -10 -8 -17
-17z"/>
<path d="M1980 5190 c8 -5 20 -10 25 -10 6 0 3 5 -5 10 -8 5 -19 10 -25 10 -5
0 -3 -5 5 -10z"/>
<path d="M7370 5170 c8 -5 22 -9 30 -9 10 0 8 3 -5 9 -27 12 -43 12 -25 0z"/>
<path d="M6360 5150 c-9 -6 -10 -10 -3 -10 6 0 15 5 18 10 8 12 4 12 -15 0z"/>
<path d="M7438 5153 c7 -3 16 -2 19 1 4 3 -2 6 -13 5 -11 0 -14 -3 -6 -6z"/>
<path d="M3577 5139 c7 -7 15 -10 18 -7 3 3 -2 9 -12 12 -14 6 -15 5 -6 -5z"/>
<path d="M2180 5086 c0 -2 8 -10 18 -17 15 -13 16 -12 3 4 -13 16 -21 21 -21
13z"/>
<path d="M7270 5076 c0 -3 9 -10 20 -16 11 -6 20 -8 20 -6 0 3 -9 10 -20 16
-11 6 -20 8 -20 6z"/>
<path d="M5583 5053 c9 -2 23 -2 30 0 6 3 -1 5 -18 5 -16 0 -22 -2 -12 -5z"/>
<path d="M2322 4790 c0 -14 2 -19 5 -12 2 6 2 18 0 25 -3 6 -5 1 -5 -13z"/>
<path d="M2283 4725 c0 -22 2 -30 4 -17 2 12 2 30 0 40 -3 9 -5 -1 -4 -23z"/>
<path d="M2321 4470 c9 -5 28 -6 45 0 27 8 26 8 -16 9 -32 0 -40 -2 -29 -9z"/>
<path d="M2420 4470 c20 -13 143 -13 135 0 -3 6 -39 10 -78 10 -50 0 -67 -3
-57 -10z"/>
<path d="M7723 4473 c20 -2 54 -2 75 0 20 2 3 4 -38 4 -41 0 -58 -2 -37 -4z"/>
<path d="M2625 4460 c28 -5 70 -8 95 -8 l45 1 -50 7 c-27 5 -70 8 -95 8 l-45
-1 50 -7z"/>
<path d="M2098 4453 c12 -2 32 -2 45 0 12 2 2 4 -23 4 -25 0 -35 -2 -22 -4z"/>
<path d="M2263 4443 c9 -2 23 -2 30 0 6 3 -1 5 -18 5 -16 0 -22 -2 -12 -5z"/>
<path d="M7318 4443 c28 -2 76 -2 105 0 28 2 5 3 -53 3 -58 0 -81 -1 -52 -3z"/>
<path d="M7488 4443 c7 -3 16 -2 19 1 4 3 -2 6 -13 5 -11 0 -14 -3 -6 -6z"/>
<path d="M1835 4210 c-25 -10 -48 -36 -43 -49 1 -6 28 -23 57 -38 66 -34 91
-66 102 -130 12 -73 11 -612 -2 -656 -7 -26 -23 -47 -52 -68 -52 -37 -61 -53
-47 -79 10 -19 21 -20 228 -21 119 -1 244 0 276 1 123 4 241 53 301 123 57 66
70 103 70 192 -1 67 -5 88 -28 133 -30 57 -82 101 -153 128 -42 16 -58 34 -30
34 18 0 104 92 116 125 31 81 -10 206 -85 258 -64 44 -160 56 -445 56 -135 0
-254 -4 -265 -9z m502 -131 c54 -26 82 -78 83 -150 0 -89 -73 -153 -189 -165
l-61 -7 0 110 c0 60 -5 135 -11 166 -5 32 -7 62 -3 68 11 18 130 3 181 -22z
m41 -415 c54 -32 97 -90 112 -154 12 -51 10 -69 -17 -132 -26 -62 -129 -98
-256 -90 l-47 3 2 191 3 191 35 13 c47 18 115 8 168 -22z"/>
<path d="M3266 4198 c-27 -25 -153 -266 -322 -618 -122 -253 -141 -287 -184
-315 -36 -24 -45 -47 -30 -75 10 -18 20 -20 135 -20 68 0 130 3 139 6 26 10
19 45 -16 81 l-32 33 17 54 c10 30 32 76 50 103 l32 48 196 3 196 2 37 -103
c20 -57 36 -109 36 -116 0 -7 -11 -22 -25 -33 -27 -21 -32 -47 -13 -66 17 -17
749 -17 766 0 22 22 13 45 -28 72 -23 15 -45 38 -50 52 -6 14 -10 107 -10 207
l1 182 27 -35 c101 -129 350 -398 416 -449 65 -50 136 -67 211 -50 28 6 61 10
75 10 14 -1 174 -1 355 0 372 1 360 -2 370 78 4 25 12 60 18 78 8 24 8 35 -2
47 -21 25 -36 19 -84 -31 l-45 -47 -124 -4 c-96 -3 -131 -1 -161 11 l-37 16 0
175 0 176 99 0 c120 0 148 -15 153 -82 4 -55 29 -72 60 -40 22 21 23 30 23
165 0 137 -1 142 -21 145 -15 2 -34 -10 -58 -35 l-35 -38 -111 -3 -110 -4 0
162 0 162 120 -4 c139 -4 151 -10 160 -85 4 -38 9 -48 24 -48 39 0 61 49 65
147 2 68 0 93 -10 99 -20 13 -976 11 -1000 -1 -23 -13 -25 -47 -2 -72 14 -16
14 -22 3 -43 -13 -25 -363 -365 -375 -365 -4 0 -5 79 -3 175 l3 174 44 45 c78
79 46 96 -179 96 -160 0 -203 -8 -214 -37 -8 -21 0 -30 43 -53 21 -10 50 -33
65 -50 l26 -32 0 -369 0 -370 -25 -24 c-34 -35 -106 -35 -140 -1 -47 47 -108
186 -255 577 -97 261 -131 333 -159 349 -32 17 -78 12 -105 -12z m1662 -102
l37 -36 3 -363 c2 -199 0 -372 -3 -384 -3 -13 -24 -35 -46 -50 l-40 -26 -51
49 c-117 112 -296 302 -407 431 -58 68 -60 72 -42 85 10 7 56 47 102 89 119
108 218 191 264 223 34 23 48 27 93 23 46 -3 59 -9 90 -41z m-1541 -499 c-27
-10 -291 -1 -295 11 -1 4 25 69 59 143 34 74 72 159 86 189 l24 55 73 -195
c71 -189 73 -195 53 -203z"/>
<path d="M5645 4208 c-48 -27 -39 -56 28 -88 87 -42 87 -40 87 -425 0 -195 -4
-345 -10 -367 -7 -24 -25 -48 -50 -68 -41 -32 -49 -57 -28 -78 9 -9 100 -12
350 -12 395 0 366 -8 387 114 11 68 11 81 -2 93 -21 22 -51 8 -81 -37 -23 -35
-30 -39 -82 -46 -73 -9 -224 0 -252 15 -21 11 -22 17 -22 186 l0 175 98 0
c121 0 140 -10 144 -78 3 -44 5 -47 34 -50 18 -2 36 3 42 11 7 8 15 67 19 139
9 176 -9 203 -87 128 l-42 -40 -104 0 c-92 0 -104 2 -105 18 -1 9 -2 81 -3
159 l-1 143 110 0 c143 0 159 -8 163 -78 2 -35 8 -55 18 -59 24 -9 62 25 73
64 15 52 14 166 -1 181 -17 17 -654 17 -683 0z"/>
<path d="M6440 4207 c-15 -7 -26 -23 -28 -38 -3 -22 4 -28 57 -51 98 -43 96
-33 96 -433 -1 -371 -4 -393 -56 -421 -38 -19 -53 -48 -39 -74 10 -19 21 -20
199 -20 153 0 191 3 201 15 19 23 8 47 -35 76 -22 15 -43 38 -46 51 -4 12 -7
88 -8 167 l-1 144 44 -5 c57 -7 87 -35 182 -171 74 -107 162 -218 194 -245 38
-32 75 -43 140 -44 110 -1 151 40 94 93 -24 22 -132 154 -197 242 -15 20 -54
67 -86 104 l-59 66 57 37 c106 68 147 144 139 253 -13 153 -109 234 -309 256
-125 14 -510 13 -539 -2z m528 -139 c63 -31 92 -87 92 -176 0 -94 -26 -143
-93 -176 -40 -20 -66 -26 -119 -26 l-68 0 0 174 c0 95 -3 188 -7 206 l-6 33
77 -6 c52 -4 93 -13 124 -29z"/>
<path d="M7320 4213 c-20 -8 -50 -34 -50 -45 0 -4 24 -23 53 -42 68 -44 73
-50 214 -256 165 -240 157 -221 161 -375 4 -158 -6 -199 -61 -234 -38 -25 -48
-56 -25 -79 17 -17 379 -17 396 0 22 22 12 47 -29 73 -61 39 -69 69 -69 247
l0 153 119 159 c145 194 210 268 273 313 53 39 59 54 26 77 -17 12 -50 16
-143 16 -93 0 -126 -4 -143 -16 -27 -19 -28 -45 -2 -69 28 -25 25 -53 -11
-111 -48 -76 -160 -224 -170 -224 -9 0 -162 212 -200 277 -24 42 -24 42 -5 74
19 32 19 32 -4 51 -19 16 -41 18 -169 17 -80 0 -153 -3 -161 -6z"/>
<path d="M4086 2895 c-95 -27 -151 -91 -143 -163 8 -71 43 -107 202 -206 48
-30 85 -77 85 -109 0 -29 -43 -63 -87 -70 -61 -10 -113 10 -142 56 -17 25 -32
37 -48 37 -20 0 -23 -5 -23 -34 0 -93 44 -120 185 -114 67 3 102 9 137 26 66
33 83 62 83 148 0 92 -22 122 -136 186 -144 80 -174 135 -100 185 54 37 97 31
142 -18 50 -54 69 -48 69 20 0 27 -3 52 -8 55 -21 13 -171 14 -216 1z"/>
<path d="M5227 2900 c-60 -16 -111 -46 -151 -91 -59 -65 -80 -120 -81 -214 0
-91 26 -161 84 -227 61 -70 188 -96 308 -64 150 40 244 178 229 335 -15 161
-116 259 -275 267 -42 2 -93 -1 -114 -6z m146 -73 c141 -78 156 -358 24 -445
-151 -100 -317 103 -267 325 9 41 22 65 51 94 61 61 114 68 192 26z"/>
<path d="M4372 2888 c-14 -14 2 -38 24 -38 27 0 34 -53 34 -266 0 -202 -1
-215 -20 -231 -11 -10 -20 -25 -20 -35 0 -16 11 -18 100 -18 87 0 100 2 100
17 0 9 -8 25 -17 35 -14 16 -18 40 -18 131 l0 112 128 3 127 3 0 -117 c0 -94
-3 -121 -16 -135 -9 -10 -14 -25 -11 -34 5 -12 25 -15 96 -15 50 0 93 4 96 10
4 6 -5 24 -19 41 l-26 31 0 211 c0 194 2 215 20 245 36 58 31 62 -75 62 -105
0 -124 -11 -85 -50 18 -18 20 -30 18 -108 l-3 -87 -119 -3 c-89 -2 -121 1
-128 10 -13 22 -9 161 7 188 27 47 22 50 -83 50 -62 0 -102 -4 -110 -12z"/>
<path d="M5622 2888 c-18 -18 -15 -27 13 -38 49 -18 56 -61 53 -282 -3 -199
-3 -199 -28 -218 -20 -16 -23 -22 -14 -37 9 -15 27 -19 103 -21 105 -3 120 8
82 58 -17 24 -21 43 -21 111 l0 81 27 -5 c38 -7 131 19 175 50 42 29 78 94 78
141 0 73 -54 141 -128 162 -53 14 -325 13 -340 -2z m290 -65 c46 -53 55 -151
19 -202 -19 -26 -105 -71 -115 -60 -2 2 -6 66 -8 142 l-4 137 47 0 c31 0 51
-6 61 -17z"/>
<path d="M2485 2561 c77 -4 130 -8 118 -10 -13 -2 -27 -4 -32 -5 -31 -4 -15
-15 31 -21 58 -7 387 1 396 10 6 6 -29 9 -75 6 -19 -2 -33 2 -33 9 0 7 39 10
128 9 151 -2 217 -15 88 -17 -49 -1 -91 -4 -94 -7 -7 -7 213 -6 342 2 73 4
104 9 97 16 -7 7 -200 11 -558 12 -302 1 -485 -1 -408 -4z m245 -13 c0 -11
-60 -9 -85 2 -14 7 -5 9 32 7 29 -1 53 -5 53 -9z m103 5 c-7 -2 -19 -2 -25 0
-7 3 -2 5 12 5 14 0 19 -2 13 -5z m454 -9 c-3 -3 -12 -4 -19 -1 -8 3 -5 6 6 6
11 1 17 -2 13 -5z"/>
<path d="M6821 2566 c2 -2 116 -6 253 -10 137 -3 251 -8 253 -10 3 -2 -23 -6
-56 -8 -34 -1 -61 -1 -61 2 0 3 -111 3 -247 1 -226 -4 -237 -5 -128 -12 166
-9 745 -8 635 1 -47 4 -96 5 -109 2 -17 -3 -22 -1 -19 9 3 8 12 13 21 11 8 -1
18 2 22 8 4 7 -87 10 -281 10 -158 0 -285 -2 -283 -4z"/>
<path d="M7400 2562 c0 -4 44 -6 98 -4 139 5 145 9 15 11 -62 0 -113 -3 -113
-7z"/>
<path d="M2110 2550 c16 -11 212 -12 206 -1 -3 4 -53 8 -113 9 -77 2 -104 0
-93 -8z"/>
<path d="M6635 2550 l-40 -7 48 -2 c30 0 46 3 42 9 -3 6 -7 9 -8 9 -1 -1 -20
-5 -42 -9z"/>
<path d="M7818 2548 c9 -9 15 -9 24 0 9 9 7 12 -12 12 -19 0 -21 -3 -12 -12z"/>
<path d="M7860 2550 c0 -5 17 -10 38 -9 33 1 34 2 12 9 -36 11 -50 11 -50 0z"/>
<path d="M2463 2533 c9 -2 23 -2 30 0 6 3 -1 5 -18 5 -16 0 -22 -2 -12 -5z"/>
<path d="M7613 2533 c26 -2 67 -2 90 0 23 2 2 3 -48 3 -49 0 -68 -1 -42 -3z"/>
<path d="M7758 2533 c6 -2 18 -2 25 0 6 3 1 5 -13 5 -14 0 -19 -2 -12 -5z"/>
</g>
</svg>
