<?xml version="1.0" standalone="no"?>
<!DOCTYPE svg PUBLIC "-//W3C//DTD SVG 20010904//EN"
 "http://www.w3.org/TR/2001/REC-SVG-20010904/DTD/svg10.dtd">
<svg version="1.0" xmlns="http://www.w3.org/2000/svg"
 width="1024.000000pt" height="1024.000000pt" viewBox="0 0 1024.000000 1024.000000"
 preserveAspectRatio="xMidYMid meet">

<g transform="translate(0.000000,1024.000000) scale(0.100000,-0.100000)"
fill="#000000" stroke="none">
<path d="M5173 7133 c9 -2 25 -2 35 0 9 3 1 5 -18 5 -19 0 -27 -2 -17 -5z"/>
<path d="M4920 7106 c0 -2 18 -6 40 -8 22 -2 40 0 40 4 0 5 -18 8 -40 8 -22 0
-40 -2 -40 -4z"/>
<path d="M5458 7103 c6 -2 18 -2 25 0 6 3 1 5 -13 5 -14 0 -19 -2 -12 -5z"/>
<path d="M5588 7103 c7 -3 16 -2 19 1 4 3 -2 6 -13 5 -11 0 -14 -3 -6 -6z"/>
<path d="M5708 7083 c7 -3 16 -2 19 1 4 3 -2 6 -13 5 -11 0 -14 -3 -6 -6z"/>
<path d="M5770 7070 c16 -5 19 -8 8 -9 -9 -1 -19 -5 -22 -9 -3 -4 16 -3 41 2
44 11 44 11 17 17 -16 4 -38 7 -49 7 -16 0 -15 -2 5 -8z"/>
<path d="M5858 7053 c6 -2 18 -2 25 0 6 3 1 5 -13 5 -14 0 -19 -2 -12 -5z"/>
<path d="M5908 7043 c7 -3 16 -2 19 1 4 3 -2 6 -13 5 -11 0 -14 -3 -6 -6z"/>
<path d="M5930 7030 c-8 -5 -10 -10 -5 -10 6 0 17 5 25 10 8 5 11 10 5 10 -5
0 -17 -5 -25 -10z"/>
<path d="M4865 7010 c-3 -5 -2 -10 4 -10 5 0 13 5 16 10 3 6 2 10 -4 10 -5 0
-13 -4 -16 -10z"/>
<path d="M4514 6978 l-19 -23 23 19 c21 18 27 26 19 26 -2 0 -12 -10 -23 -22z"/>
<path d="M5624 6964 c-18 -14 -18 -15 4 -4 12 6 22 13 22 15 0 8 -5 6 -26 -11z"/>
<path d="M4999 6933 c-43 -48 -62 -73 -57 -73 3 0 24 23 47 50 45 53 52 69 10
23z"/>
<path d="M4759 6933 c-13 -16 -12 -17 4 -4 9 7 17 15 17 17 0 8 -8 3 -21 -13z"/>
<path d="M5570 6931 c-13 -11 -29 -17 -35 -14 -5 4 -7 3 -3 -1 4 -5 -13 -32
-37 -62 -42 -51 -70 -94 -62 -94 2 0 21 25 42 56 21 30 59 73 84 95 48 40 55
53 11 20z"/>
<path d="M4429 6903 c-13 -16 -12 -17 4 -4 9 7 17 15 17 17 0 8 -8 3 -21 -13z"/>
<path d="M4714 6898 l-19 -23 23 19 c21 18 27 26 19 26 -2 0 -12 -10 -23 -22z"/>
<path d="M4394 6858 l-19 -23 23 19 c21 18 27 26 19 26 -2 0 -12 -10 -23 -22z"/>
<path d="M4664 6859 c-19 -22 -19 -22 4 -8 12 8 22 17 22 21 0 12 -6 9 -26
-13z"/>
<path d="M5209 6853 c-13 -16 -12 -17 4 -4 9 7 17 15 17 17 0 8 -8 3 -21 -13z"/>
<path d="M5169 6823 c-13 -16 -12 -17 4 -4 9 7 17 15 17 17 0 8 -8 3 -21 -13z"/>
<path d="M4604 6808 l-19 -23 23 19 c21 18 27 26 19 26 -2 0 -12 -10 -23 -22z"/>
<path d="M4524 6738 l-19 -23 23 19 c21 18 27 26 19 26 -2 0 -12 -10 -23 -22z"/>
<path d="M4866 6735 c-9 -26 -7 -32 5 -12 6 10 9 21 6 23 -2 3 -7 -2 -11 -11z"/>
<path d="M3614 6628 l-29 -33 33 29 c30 28 37 36 29 36 -2 0 -16 -15 -33 -32z"/>
<path d="M5369 6523 c-13 -16 -12 -17 4 -4 9 7 17 15 17 17 0 8 -8 3 -21 -13z"/>
<path d="M3357 5539 c-107 -14 -248 -66 -330 -119 -197 -130 -289 -298 -228
-418 35 -69 120 -94 175 -51 30 23 32 42 11 92 -34 82 -3 160 105 260 129 120
296 180 435 157 174 -28 270 -120 269 -260 0 -121 -78 -219 -229 -291 -79 -37
-183 -69 -225 -69 -16 0 -20 5 -16 18 72 227 153 549 141 560 -11 11 -63 -26
-130 -93 -108 -107 -150 -202 -244 -547 -135 -492 -209 -607 -388 -608 -35 0
-63 -2 -63 -5 0 -15 48 -67 80 -89 98 -65 174 -55 258 32 121 127 214 300 274
513 17 63 38 120 47 127 10 8 52 12 126 12 98 0 117 -3 161 -25 62 -31 94 -82
101 -164 21 -232 -265 -455 -632 -493 -16 -2 -29 -7 -28 -13 3 -21 90 -37 203
-38 107 0 123 2 225 37 176 60 286 130 367 238 53 70 80 148 80 235 0 120 -53
209 -164 272 l-49 28 66 32 c87 43 177 127 212 199 87 176 -33 380 -266 453
-77 24 -241 33 -344 18z"/>
<path d="M5475 5531 c-51 -23 -133 -97 -189 -170 -97 -126 -153 -246 -271
-576 -26 -71 -65 -164 -87 -205 -74 -139 -206 -279 -279 -295 -38 -9 -69 16
-69 56 0 43 43 168 125 370 41 101 75 186 75 191 0 4 -32 8 -71 8 -62 0 -71
-2 -76 -20 -7 -24 -12 -25 -43 -2 -36 25 -149 22 -218 -7 -159 -64 -312 -225
-379 -399 -21 -53 -26 -86 -27 -154 -1 -86 0 -88 31 -120 27 -27 41 -32 91
-36 33 -2 76 1 95 7 44 15 118 79 160 140 l32 46 6 -68 c4 -51 11 -73 29 -92
76 -81 244 -42 366 87 33 35 70 76 82 92 12 16 24 27 26 25 2 -2 -16 -53 -40
-114 -24 -60 -44 -114 -44 -118 0 -4 46 -6 101 -5 l102 3 51 134 c28 74 57
136 63 138 7 3 42 -55 83 -137 l71 -142 92 4 c81 3 100 8 157 38 36 19 89 58
118 87 29 29 55 53 58 53 2 0 4 -7 4 -15 0 -54 75 -138 143 -161 64 -21 181
-14 255 15 173 69 365 267 492 509 34 65 41 69 77 49 l22 -12 -47 -100 c-57
-119 -97 -223 -89 -232 17 -16 42 20 114 162 l78 157 48 -5 c26 -2 50 -7 53
-10 3 -3 -12 -29 -34 -59 -105 -140 -149 -309 -104 -398 9 -19 33 -45 52 -58
31 -21 44 -23 105 -20 46 3 85 13 114 28 55 28 143 110 185 171 l31 46 1 -76
c0 -127 40 -175 145 -174 81 1 134 34 201 123 29 38 53 68 55 66 2 -2 -10 -41
-27 -87 l-30 -84 -83 -42 c-232 -119 -368 -218 -409 -297 -29 -56 -30 -135 -2
-172 41 -56 70 -69 148 -69 63 0 81 5 148 37 137 68 259 222 345 435 37 94 39
97 85 116 33 15 48 27 51 45 4 23 2 24 -29 19 -39 -7 -39 -8 -19 40 17 40 195
598 195 611 0 4 -44 6 -98 4 l-99 -3 -48 -147 c-70 -213 -178 -410 -248 -453
-39 -23 -41 -23 -61 -3 -35 35 -14 142 84 422 33 95 60 175 60 178 0 2 -49 4
-110 4 -95 0 -110 -2 -110 -16 0 -9 -21 -79 -46 -156 -67 -201 -168 -359 -272
-428 -55 -36 -115 -41 -132 -11 -28 54 9 201 81 319 51 83 69 132 69 188 0 76
-57 93 -165 49 -70 -29 -104 -31 -150 -9 -42 20 -47 32 -30 80 23 63 19 111
-11 141 -22 22 -32 25 -72 20 -35 -4 -52 -12 -69 -33 -44 -56 -41 -156 7 -222
l28 -40 -48 -86 c-72 -128 -130 -204 -218 -287 -131 -123 -268 -181 -345 -144
-41 19 -67 66 -67 118 0 32 3 36 33 42 113 25 296 148 369 249 22 31 28 50 28
92 0 45 -5 59 -30 88 -101 114 -359 25 -505 -174 -20 -27 -53 -92 -74 -144
-22 -52 -53 -114 -69 -139 -47 -67 -134 -127 -187 -127 -28 0 -54 36 -139 192
l-47 87 53 27 c86 43 191 105 227 135 128 105 73 240 -94 227 -68 -6 -113 -26
-201 -91 l-61 -45 20 54 c16 44 33 64 98 119 137 116 254 248 299 337 52 104
53 147 6 194 -40 40 -87 45 -151 15z m70 -131 c14 -22 -111 -205 -194 -285
-38 -36 -41 -38 -32 -13 18 49 83 173 118 226 42 62 93 97 108 72z m-87 -561
c2 -9 -24 -43 -60 -79 -65 -64 -272 -220 -292 -220 -8 0 -8 3 0 8 6 4 20 28
33 53 25 54 194 222 244 244 40 18 71 15 75 -6z m756 -20 c13 -39 -24 -109
-98 -184 -61 -62 -156 -125 -188 -125 -16 0 -16 3 -3 41 39 108 152 266 210
290 36 15 69 6 79 -22z m-1689 -8 c3 -6 -19 -72 -50 -147 -92 -230 -229 -414
-291 -390 -39 15 17 219 98 350 42 70 115 155 152 177 33 20 81 25 91 10z
m2949 -773 c-25 -79 -174 -272 -235 -304 -98 -50 -147 47 -65 129 18 18 75 60
127 92 52 32 110 68 129 81 44 29 53 29 44 2z"/>
<path d="M4344 3701 c-42 -19 -64 -56 -64 -107 0 -32 51 -88 116 -124 54 -31
84 -63 84 -88 0 -7 -11 -24 -25 -37 -28 -29 -72 -32 -116 -9 -36 18 -59 12
-59 -15 0 -32 44 -54 108 -54 98 0 162 47 162 118 0 46 -29 85 -93 125 -99 62
-107 70 -107 94 0 51 69 72 130 41 27 -14 30 -14 40 4 14 27 3 48 -32 60 -45
16 -98 13 -144 -8z"/>
<path d="M4716 3704 c-24 -23 -24 -405 0 -428 12 -12 20 -13 35 -6 17 9 19 22
19 106 l0 95 93 -3 92 -3 3 -89 c3 -109 19 -137 57 -100 14 15 15 40 9 218 -5
160 -9 203 -21 213 -33 26 -43 5 -43 -93 l0 -94 -95 0 -95 0 0 88 c0 105 -17
134 -54 96z"/>
<path d="M5312 3713 c-36 -7 -97 -75 -116 -128 -42 -124 -1 -254 94 -302 140
-71 279 26 280 196 0 81 -15 130 -53 177 -47 56 -112 75 -205 57z m131 -81
c40 -37 57 -81 57 -148 0 -96 -48 -164 -117 -164 -80 0 -133 65 -133 163 0
154 103 234 193 149z"/>
<path d="M5737 3703 c-4 -3 -7 -100 -7 -214 0 -193 1 -209 19 -218 32 -18 51
16 51 90 l0 65 66 11 c36 6 75 20 86 30 68 60 53 189 -26 227 -34 16 -175 23
-189 9z m144 -53 c22 -12 49 -61 49 -89 0 -35 -41 -72 -88 -78 l-42 -6 0 85
c0 47 3 88 7 91 10 10 52 8 74 -3z"/>
</g>
</svg>
